PathFileType        4      (X/Y/Z)      C:\Users\pc\Desktop\IMUTRC\Sujet_07\Sujet_07_velo_80.trc         
DataRate	CameraRate	NumFrames	NumMarkers	Units	OrigDataRate	OrigDataStartFrame	OrigNumFrames
60.0	60.0	4	64	mm	60.0	586	936
Frame#	Time	pHipOrigin			pRightASI			pLeftASI			pRightCSI			pLeftCSI			pRightIschialTub			pLeftIschialTub			pSacrum			pL5SpinalProcess			pL3SpinalProcess			pT12SpinalProcess			pIJ			pT4SpinalProcess			pT8SpinalProcess			pPX			pC7SpinalProcess			pTopOfHead			pRightAuricularis			pLeftAuricularis			pBackOfHead			pRightAcromion			pLeftAcromion			pRightArmLatEpicondyle			pRightArmMedEpicondyle			pLeftArmLatEpicondyle			pLeftArmMedEpicondyle			pRightUlnarStyloid			pRightRadialStyloid			pRightOlecranon			pLeftUlnarStyloid			pLeftRadialStyloid			pLeftOlecranon			pRightTopOfHand			pRightPinky			pRightBallHand			pLeftTopOfHand			pLeftPinky			pLeftBallHand			pRightGreaterTrochanter			pRightKneeLatEpicondyle			pRightKneeMedEpicondyle			pRightPatella			pLeftGreaterTrochanter			pLeftKneeLatEpicondyle			pLeftKneeMedEpicondyle			pLeftPatella			pRightTibialTub			pRightLatMalleolus			pRightMedMalleolus			pLeftTibialTub			pLeftLatMalleolus			pLeftMedMalleolus			pRightHeelFoot			pRightFirstMetatarsal			pRightFifthMetatarsal			pRightPivotFoot			pRightHeelCenter			pRightToe			pLeftHeelFoot			pLeftFirstMetatarsal			pLeftFifthMetatarsal			pLeftPivotFoot			pLeftHeelCenter			pLeftToe			
		X1	Y1	Z1	X2	Y2	Z2	X3	Y3	Z3	X4	Y4	Z4	X5	Y5	Z5	X6	Y6	Z6	X7	Y7	Z7	X8	Y8	Z8	X9	Y9	Z9	X10	Y10	Z10	X11	Y11	Z11	X12	Y12	Z12	X13	Y13	Z13	X14	Y14	Z14	X15	Y15	Z15	X16	Y16	Z16	X17	Y17	Z17	X18	Y18	Z18	X19	Y19	Z19	X20	Y20	Z20	X21	Y21	Z21	X22	Y22	Z22	X23	Y23	Z23	X24	Y24	Z24	X25	Y25	Z25	X26	Y26	Z26	X27	Y27	Z27	X28	Y28	Z28	X29	Y29	Z29	X30	Y30	Z30	X31	Y31	Z31	X32	Y32	Z32	X33	Y33	Z33	X34	Y34	Z34	X35	Y35	Z35	X36	Y36	Z36	X37	Y37	Z37	X38	Y38	Z38	X39	Y39	Z39	X40	Y40	Z40	X41	Y41	Z41	X42	Y42	Z42	X43	Y43	Z43	X44	Y44	Z44	X45	Y45	Z45	X46	Y46	Z46	X47	Y47	Z47	X48	Y48	Z48	X49	Y49	Z49	X50	Y50	Z50	X51	Y51	Z51	X52	Y52	Z52	X53	Y53	Z53	X54	Y54	Z54	X55	Y55	Z55	X56	Y56	Z56	X57	Y57	Z57	X58	Y58	Z58	X59	Y59	Z59	X60	Y60	Z60	X61	Y61	Z61	X62	Y62	Z62	X63	Y63	Z63	X64	Y64	Z64	
586	9.75	0.0	1249.97763	7.653905517926474E-14	123.50647691645246	1326.75996	121.7247069168717	79.60592950801669	1315.91835	-158.97065449163142	101.30162230104752	1408.14625	96.47166328543332	65.15554136856159	1399.16109	-134.3874080450045	-65.99607674207779	1217.97262	70.79361801749356	-84.05054354806673	1213.51717	-44.66806817096787	-56.85200955018925	1296.16584	7.133769053318923	18.123604687697707	1380.67095	-7.628584135385829	103.40340887233324	1468.22063	-23.90163784269956	184.21994861416772	1545.59701	-38.978770767466294	450.034523762802	1522.87419	-81.6100403172364	357.37642881247086	1649.92889	-69.33961213072156	273.60629120000647	1610.57238	-54.93879762889658	337.8181314963427	1464.28497	-62.196367469649594	411.8907475898874	1673.91409	-76.87984199321313	685.8570866317082	1672.87448	-105.11548077728766	591.7554894313498	1644.80512	-27.225893352885876	578.7589040085841	1666.04278	-169.8639870757464	576.26422593742	1710.89436	-89.50331790796228	435.2468760412256	1604.11197	107.66659686096412	386.78496779391605	1622.37934	-259.43537582295465	464.9027741301265	1318.14608	87.489254626903	433.13635252555713	1317.25499	31.42099082067082	394.6793514786059	1322.89857	-267.9108294592802	360.06485122174496	1316.73519	-213.89735633579113	544.8327028542916	1072.42779	52.26457703128995	593.8096953234751	1095.07635	47.18655767274593	424.1010538169389	1310.49755	64.44684724555918	441.8293728480529	1064.92778	-253.63628204912072	491.62800796251815	1081.19018	-267.4146682149582	352.70221997872756	1316.14113	-235.89744494549095	737.8640074652757	1042.35348	146.3907099937612	658.6751907462409	1017.55145	99.98506394238905	603.5414847276861	1054.68023	56.32076397609186	579.1197571316068	1001.80884	-408.11320301889197	524.32338270077	991.78407	-331.02491843411457	493.7086558499995	1039.75446	-275.4738960687368	43.48468313903592	1238.09642	173.4451794521562	382.1597198150596	951.53647	154.61616867403006	381.27924528441895	945.81864	68.96279529587004	409.98907272208953	987.25436	106.11727549728961	-21.854639282249494	1222.72511	-176.3054743820532	227.0557752240434	862.20462	-249.360978839982	256.9639509808501	858.41748	-168.9849788124709	278.1090762811881	890.9423	-218.0846901650665	403.0758382428885	894.20963	117.6458088599028	91.45934029102992	631.85764	192.8260757892049	91.1585114847977	621.90713	128.0004665659794	293.88771071691207	823.81345	-226.55266668179624	177.32344964422055	428.31765	-264.95492415717143	196.53538892069747	422.00576	-202.58723909595756	5.127752256685056	594.6546	163.9900925627956	126.42646422769346	478.14448	142.36026053634575	125.5601222079016	489.06034	221.08868893135718	142.45657066235617	468.19396	182.91226174077323	38.011851857428525	570.74366	167.62734129315245	208.8227309249896	404.55523	192.4183802626334	128.37462787062987	356.21355	-216.55927787467866	291.69658941356613	312.47584	-228.8466532588545	267.6252504591657	313.961	-304.48083118362126	300.69566104606577	307.27781	-272.3543425472958	166.77316407505734	350.19869	-228.85947351702004	385.1131694845543	281.36192	-299.7576562111324	
587	9.767	0.0	1249.97763	7.653905517926474E-14	121.29935876722305	1328.0966	123.02278768964439	82.05232714622143	1314.80449	-158.15843949651853	99.31994362613204	1409.18586	96.78521143466273	67.06296004347709	1398.19574	-134.57233410126383	-67.07937727753819	1218.41817	69.99668958477753	-83.2536101153507	1212.92311	-45.7513773666823	-57.03960874101653	1296.09158	5.825020383290579	18.02482811552658	1380.67095	-8.200078093787948	103.33909782584821	1468.22063	-23.93876784269956	184.19010675362284	1545.67127	-38.48152314881015	450.2366869120315	1523.17123	-79.43543716311986	357.5070014360142	1650.15167	-67.63507054877614	273.60095725137865	1610.7209	-53.74143895886823	337.99577807340097	1464.50775	-60.72188036690522	411.9371162599158	1674.21112	-74.8809348855816	686.1281758323098	1673.09725	-101.87214104611282	591.7149760132953	1645.02789	-24.333942054427112	579.2255908229547	1666.26556	-167.10793234945876	576.4637246123355	1711.11713	-86.73003974895859	434.46450156691174	1604.03772	109.6157692010208	388.1400664737188	1622.67637	-257.62405558564234	464.5659496558126	1318.44311	88.66671172964737	432.9752240977283	1317.62628	32.442653444214095	395.3741335813503	1323.1956	-266.737987361423	360.4380917523182	1316.95796	-212.91016789818798	544.4985428542916	1072.72482	52.84335912914717	593.41122427699	1095.29912	47.72820977060312	423.90280038911	1310.79458	65.53281225533348	441.651007327254	1065.00203	-252.88180390477848	491.4768284882042	1081.11593	-266.55875768438494	353.20407760227084	1316.43816	-234.83598784763373	737.5769214187906	1042.42773	146.73943761241736	658.3509796997558	1017.69996	100.39809394727618	603.1801436812011	1054.903	56.79810502746407	578.5654916059208	1002.10587	-407.74724696751986	523.8977306078	991.93259	-330.58470738274235	493.43879823623047	1039.75446	-274.8579889708795	42.95031052037977	1240.47267	173.4796399778423	393.6214616370146	968.68997	153.77376949516707	392.5752523339119	962.67511	68.11045716349204	419.610375050182	1005.44746	104.89827103005278	-19.88291822110301	1221.61124	-176.45327543831255	211.3567297369473	848.24419	-242.21897442599658	239.5305133910096	843.49171	-161.21515915628606	263.26327685035136	874.53137	-210.19283127188004	414.1517261064413	911.51164	116.58064834129381	103.03976025243998	648.78837	192.2236800430579	102.47174696700668	638.91211	127.41530791280248	277.8372767970999	809.33323	-219.09905964915475	163.28720073418268	413.31762	-258.9107878973026	182.39770396417458	406.93147	-196.51593044985768	17.534240888123435	609.13483	164.03612390961865	142.01393573464892	495.89204	143.7283679247667	140.99179057540195	507.8475	222.2810952732931	158.43984374148275	486.98113	184.3374006964781	51.0713739264701	586.2635	167.87890554700547	226.52511820471778	425.34735	194.57880607888325	113.1628723884209	342.40164	-209.2216845071783	275.60173735429885	295.61938	-221.76167175189912	251.06034548798144	296.51047	-297.3242541509797	284.2321884611124	289.67877	-265.2249515611392	151.4056091136473	335.56995	-221.69756753575066	367.98671084822877	261.83218	-292.6680596992898	
588	9.783	0.0	1249.97763	7.653905517926474E-14	119.29512271096372	1329.35897	124.26650636944706	84.37011135171016	1313.61637	-157.42047950140568	97.57826338393257	1410.15121	96.98009010469107	68.86894267190755	1397.23039	-134.73008777129215	-68.0612404267676	1218.86371	69.17256644532243	-82.46662563614964	1212.4033	-46.66893446942667	-57.22719927158978	1296.01733	4.516276713262241	17.898884157124463	1380.5967	-8.873016758929136	103.2476143931322	1468.22063	-24.077333889184597	184.13307518633889	1545.74553	-38.08572157663901	450.42161296829073	1523.61677	-77.52801848820435	357.4174548736174	1650.52295	-66.14335135306176	273.5412612097807	1610.94367	-52.746962381809965	338.15618755748915	1464.80478	-59.514577743361905	411.929117836974	1674.65666	-73.08490121066619	686.2162845072252	1673.61706	-98.90592974765401	591.4914957298087	1645.62195	-21.719122848938397	579.6379068841011	1666.78536	-164.5547647161411	576.5445451477958	1711.63693	-84.1967650226709	433.62776999962773	1604.18623	111.36205078785336	389.37650567432036	1623.27043	-256.0527511015541	463.93475965581257	1318.74014	89.75996487887679	432.6211625304443	1318.07182	33.3529260677574	395.8488101584085	1323.64114	-265.7779713100508	360.5269193709744	1317.32925	-212.17292184681577	543.8428362821205	1073.09611	53.23649622700436	592.8198337513039	1095.67041	48.15846820820631	423.373051435595	1311.24013	66.59888435807784	441.07684889453793	1065.22481	-252.1843523277202	490.96698110197326	1081.26444	-265.8241761073267	353.48582103987405	1316.95796	-233.98736179626155	737.0969158931044	1042.57625	146.97677157081944	657.7695281275847	1017.99699	100.66261761241742	602.52443710903	1055.27429	57.19124212532129	577.6525495080634	1002.69993	-407.5026248696625	523.1777216493979	992.22962	-330.2286952848852	492.8374587570294	1039.97723	-274.26197844030634	42.41593790172361	1242.70039	173.5141005035284	403.8885265837631	985.54644	152.32737136278908	402.57512914120537	979.38306	66.68128246383009	428.09134661527605	1023.26928	103.27811738176302	-18.012624546187524	1220.49738	-176.5738991083409	195.77901320336616	835.69466	-235.4356379239283	222.089792661714	830.27386	-153.87828473252637	248.2345055540825	859.67986	-202.57809581140964	424.46587000670485	928.59088	114.90418706946073	115.49332283739332	663.7884	192.0396569106799	114.59381402627392	654.06065	127.21139187339453	261.27236816566153	796.18964	-211.9424962767672	146.48228867002828	400.17403	-251.63554638546	165.65710294650523	393.78788	-189.2035589380151	31.155302962052126	621.01604	164.35467234452463	159.9245167354669	512.52573	144.63707163827215	158.60801471078784	525.001	223.1056000332836	176.7091013144718	504.58017	185.36743836349856	65.54835519122605	599.48134	168.34863845622533	247.27063259696462	445.69392	195.92382112236035	95.32830427778147	330.66895	-200.31154640850312	256.758128708199	280.69361	-213.77708417890997	231.5066681767404	280.91638	-289.14941157310346	264.82702114987137	273.93617	-257.30733584869506	133.28661943083674	322.8719	-213.03737682330646	347.77271195992944	244.15888000000004	-285.13168660061456	
589	9.8	0.0	1249.97763	7.653905517926474E-14	117.65221904093539	1330.47284	125.0328789978775	86.23774055231176	1312.42825	-156.9424281665469	96.18798023470318	1411.0423	96.86337115606327	70.35338738842093	1396.19078	-135.0734814413205	-68.92444409679592	1219.38352	68.58845905909143	-81.85532854317958	1211.95776	-47.43069209296997	-57.296125322961956	1296.01733	3.447540136203967	17.901548631438374	1380.52244	-9.471691763816288	103.23037730016212	1468.22063	-24.34451836838566	184.12313123282388	1545.74553	-37.91997814392298	450.7007005918341	1523.98806	-76.08071243194503	357.44925092498954	1650.74573	-65.01030372951844	273.6029077819519	1611.09219	-52.111157376922804	338.3736286088614	1465.02755	-58.70307669198973	411.9781509813163	1674.95369	-71.68466910792178	686.3985547494246	1673.98834	-96.3998310678514	591.4264657395829	1646.0675	-19.527287601851768	580.1072495125316	1667.08239	-162.3973899947406	576.6823972505401	1712.08248	-82.05929186855438	432.8752460461128	1604.26049	112.81398050925391	390.63283278195183	1623.79023	-254.81293348289796	463.4520846558126	1318.96291	90.5959825024201	432.3413696234144	1318.36885	34.134581598330634	396.1504638235497	1323.93817	-265.2608307843647	360.3784043709744	1317.70054	-211.91568632112967	543.3257007564343	1073.31888	53.53814123189154	592.3026932256179	1095.89318	48.46012187334754	422.927501435595	1311.4629	67.37059959539013	440.54975575508286	1065.37332	-251.716960229863	490.50419900900323	1081.26444	-265.3196540094695	353.5945415655601	1317.32925	-233.58161127057545	736.5625519347024	1042.57625	147.01123709650557	657.1980341691826	1018.07125	100.76139418458854	601.9801205368589	1055.42281	57.3914460837234	576.8410484566914	1002.99696	-407.2851838182905	522.5319640307418	992.45239	-330.00131027999805	492.2831932313433	1040.05149	-273.8960223889341	42.084442376037515	1244.7796	173.49420759649846	412.58959867454325	1000.99201	150.92005242123835	411.1104627992695	994.60586	65.26401090851036	435.1077836913947	1039.53169	101.66987187781548	-16.75095482967413	1219.235	-176.53143515971308	181.07978324195608	825.22435	-229.43130479862737	206.23761716973075	819.358	-147.51065136991315	234.17835507676068	847.20459	-196.20246902585467	433.69403523694007	944.25923	113.02947603005278	128.79284699940493	675.29832	192.17256534558587	127.33178952314435	665.86761	127.27731112724753	245.98173767856542	784.67972	-205.50788739335502	128.51448346153163	389.33243	-243.83127486384305	147.72642273800858	383.02053	-181.46358980262917	46.12953184546428	628.9616	164.85424711428942	179.5595495457683	526.33764	145.0837172025482	177.97585938163417	539.1842	223.56946903027568	196.87850308317533	519.35743	185.7796097418345	81.48987960521143	609.06057	168.80646822110296	270.00048147818677	463.81277	196.3566080117209	76.45216697631474	321.23824	-191.23103755171667	236.83582587127194	268.21833	-205.5578234615787	210.83717033492616	267.9213	-280.6755711441459	244.33322435454215	260.79258	-248.98929855919258	114.12607921745293	312.69862	-204.2068276732591	326.44289754105694	229.15885000000003	-277.29632431111213	
